<svg id="隔离模式" xmlns="http://www.w3.org/2000/svg" viewBox="0 0 216 248.13"><defs><style>.cls-1{fill:#fff;}.cls-2{fill:#b5e9f4;}.cls-3{fill:#ffd15c;}.cls-4{fill:#40596b;}.cls-5{fill:#e2e2e2;}.cls-6{fill:#f2705b;}</style></defs><title>work</title><rect class="cls-1" x="1.75" y="1.75" width="212.5" height="244.63" rx="3.25" ry="3.25"/><path class="cls-2" d="M228,4.5A1.5,1.5,0,0,1,229.5,6V244.13a1.5,1.5,0,0,1-1.5,1.5H22a1.5,1.5,0,0,1-1.5-1.5V6A1.5,1.5,0,0,1,22,4.5H228M228,1H22a5,5,0,0,0-5,5V244.13a5,5,0,0,0,5,5H228a5,5,0,0,0,5-5V6a5,5,0,0,0-5-5Z" transform="translate(-17 -1)"/><circle class="cls-3" cx="84.98" cy="177.47" r="32.77" transform="translate(-109.61 91.74) rotate(-38.91)"/><polygon class="cls-4" points="60.88 198.08 39.61 176.81 47.37 169.05 60.88 182.56 103.58 139.87 111.33 147.63 60.88 198.08"/><rect class="cls-5" x="35" y="77.58" width="144.31" height="11.3"/><rect class="cls-6" x="35" y="49.26" width="72.14" height="11.3"/><rect class="cls-5" x="35" y="105.9" width="144.31" height="11.3"/><rect class="cls-5" x="120.07" y="134.23" width="59.24" height="11.3"/></svg>